<?xml version="1.0" encoding="utf-8"?>
<!-- Generator: Adobe Illustrator 16.0.0, SVG Export Plug-In . SVG Version: 6.00 Build 0)  -->
<!DOCTYPE svg PUBLIC "-//W3C//DTD SVG 1.1//EN" "http://www.w3.org/Graphics/SVG/1.1/DTD/svg11.dtd">
<svg version="1.1" id="Layer_1" xmlns="http://www.w3.org/2000/svg" xmlns:xlink="http://www.w3.org/1999/xlink" x="0px" y="0px"
	 width="77.833px" height="78.92px" viewBox="0 0 77.833 78.92" enable-background="new 0 0 77.833 78.92" xml:space="preserve">
<g>
	<defs>
		<rect id="SVGID_1_" y="0" width="77.833" height="78.92"/>
	</defs>
	<clipPath id="SVGID_2_">
		<use xlink:href="#SVGID_1_"  overflow="visible"/>
	</clipPath>
	<path clip-path="url(#SVGID_2_)" fill="#AC884F" d="M38.411,0.147c0.309-0.196,0.702-0.196,1.011,0l19.253,12.25l17.03,10.835
		c0.794,0.506,0.437,1.736-0.506,1.736H38.916H2.633c-0.942,0-1.3-1.23-0.505-1.736l17.03-10.835L38.411,0.147z"/>
	<rect x="6" y="27.55" clip-path="url(#SVGID_2_)" fill="#AC884F" width="65.833" height="3.333"/>
	<rect x="6" y="69.672" clip-path="url(#SVGID_2_)" fill="#AC884F" width="65.833" height="3.333"/>
	<rect x="11.688" y="33.465" clip-path="url(#SVGID_2_)" fill="#AC884F" width="7.208" height="33.625"/>
	<rect x="27.438" y="33.465" clip-path="url(#SVGID_2_)" fill="#AC884F" width="7.208" height="33.625"/>
	<rect x="43.188" y="33.465" clip-path="url(#SVGID_2_)" fill="#AC884F" width="7.208" height="33.625"/>
	<rect x="58.938" y="33.465" clip-path="url(#SVGID_2_)" fill="#AC884F" width="7.208" height="33.625"/>
	<rect y="75.587" clip-path="url(#SVGID_2_)" fill="#AC884F" width="77.833" height="3.333"/>
</g>
</svg>
